<svg xmlns="http://www.w3.org/2000/svg" viewBox="8104 -2389 29 25.774">
  <defs>
    <style>
      .cls-1 {
        fill: #ffb948;
      }

      .cls-2, .cls-3 {
        stroke: none;
      }

      .cls-3 {
        fill: #0a1227;
      }
    </style>
  </defs>
  <g id="ハートのマーク3" transform="translate(8106 -2387.01)">
    <g id="パス_68" data-name="パス 68" class="cls-1" transform="translate(-4.248 0)">
      <path class="cls-2" d="M 16.71726989746094 22.78361892700195 L 16.67263984680176 22.78025817871094 C 15.98017024993896 22.7281379699707 15.12779998779297 22.36434936523438 13.99018001556396 21.63537788391113 C 13.11566066741943 21.07499885559082 12.11048030853271 20.32001876831055 11.00257015228271 19.39137840270996 C 9.100950241088867 17.7974796295166 7.082610130310059 15.82649898529053 6.203400135040283 14.70482921600342 C 4.014350414276123 11.91363906860352 2.961510181427002 8.645049095153809 3.315020084381104 5.737368583679199 C 3.573320150375366 3.612868785858154 4.557740211486816 1.826758861541748 6.161870002746582 0.5721288323402405 C 7.443960189819336 -0.4349311888217926 9.055060386657715 -0.9902411699295044 10.6967601776123 -0.9902411699295044 C 11.4579906463623 -0.9902411699295044 12.21152973175049 -0.8730411529541016 12.93644046783447 -0.6419011950492859 C 14.52027988433838 -0.1368817687034607 15.85104846954346 0.8705193400382996 16.74768829345703 2.194167375564575 C 17.64432716369629 0.8705163598060608 18.97509384155273 -0.1368817687034607 20.55894088745117 -0.6419011950492859 C 21.28384971618652 -0.8730411529541016 22.03738975524902 -0.9902411699295044 22.79862022399902 -0.9902411699295044 C 24.44032096862793 -0.9902411699295044 26.05142021179199 -0.4349311888217926 27.33514976501465 0.573408842086792 C 29.28374099731445 2.097448825836182 30.31748962402344 4.426568984985352 30.24435043334961 7.130428791046143 C 30.17548942565918 9.675838470458984 29.12886047363281 12.36568927764893 27.29723930358887 14.70448875427246 C 26.4496898651123 15.78576850891113 24.63096046447754 17.73537826538086 22.63997077941895 19.46157836914062 C 20.08531951904297 21.67645835876465 18.16263008117676 22.76289939880371 16.76202011108398 22.78297805786133 L 16.71726989746094 22.78361892700195 Z"/>
      <path class="cls-3" d="M 16.74769020080566 21.78307914733887 C 19.33687019348145 21.74596977233887 24.87030029296875 16.17972946166992 26.50994110107422 14.08791923522949 C 29.97859954833984 9.658779144287109 30.26485061645508 4.134338855743408 26.71743965148926 1.359818816184998 C 25.58977890014648 0.4740625619888306 24.20393943786621 0.009753897786140442 22.79861831665039 0.009753897786140442 C 22.14962387084961 0.009753897786140442 21.49672317504883 0.1086829081177711 20.86273002624512 0.3108388185501099 C 18.85589981079102 0.9507288336753845 17.30998992919922 2.539048910140991 16.74769020080566 4.538768768310547 C 16.18538093566895 2.539048910140991 14.63948059082031 0.9507288336753845 12.63265037536621 0.3108388185501099 C 11.998779296875 0.1087219640612602 11.3456335067749 0.009753897786140442 10.69676208496094 0.009753897786140442 C 9.291312217712402 0.009753897786140442 7.905702114105225 0.4739835262298584 6.777940273284912 1.359818816184998 C 3.230530261993408 4.134338855743408 3.516780138015747 9.658779144287109 6.990440368652344 14.08791923522949 C 8.559470176696777 16.08964920043945 14.58100986480713 21.61999893188477 16.74769020080566 21.78307914733887 M 16.68684005737305 23.78415870666504 L 16.59757995605469 23.77743911743164 C 15.69255065917969 23.70931816101074 14.06130981445312 23.25997924804688 10.36019992828369 20.15776824951172 C 8.380720138549805 18.49860954284668 6.347740173339844 16.50995826721191 5.416370391845703 15.32173919677734 C 3.064870119094849 12.32342910766602 1.937020182609558 8.785919189453125 2.322330236434937 5.616678714752197 C 2.613370180130005 3.222918748855591 3.728020191192627 1.2061687707901 5.54580020904541 -0.215561181306839 C 7.001580238342285 -1.359071135520935 8.832059860229492 -1.990241169929504 10.6967601776123 -1.990241169929504 C 11.56124973297119 -1.990241169929504 12.41699981689453 -1.857141137123108 13.2402400970459 -1.594631195068359 C 14.60386371612549 -1.159834265708923 15.80278396606445 -0.3970460593700409 16.74769020080566 0.6018065214157104 C 17.69259834289551 -0.3970485031604767 18.89152145385742 -1.159833908081055 20.25515937805176 -1.594641208648682 C 21.07837104797363 -1.857141137123108 21.93412971496582 -1.990241169929504 22.79862022399902 -1.990241169929504 C 24.66331100463867 -1.990241169929504 26.49378967285156 -1.359071135520935 27.95285987854004 -0.2129911780357361 C 30.15595054626465 1.510088801383972 31.32592010498047 4.128548622131348 31.24398040771484 7.157468795776367 C 31.16938018798828 9.915549278259277 30.04733085632324 12.81476879119873 28.08453941345215 15.32105922698975 C 27.20816040039062 16.43911933898926 25.33595085144043 18.44766807556152 23.29504013061523 20.21713829040527 C 22.16309928894043 21.19853973388672 21.11635971069336 21.98744964599609 20.18388938903809 22.56196975708008 C 18.87333106994629 23.36942863464355 17.75872039794922 23.76878929138184 16.7763500213623 23.78286933898926 L 16.68684005737305 23.78415870666504 Z"/>
    </g>
  </g>
</svg>
